<svg width="36" height="36" viewBox="0 0 36 36" fill="none" xmlns="http://www.w3.org/2000/svg">
<g clip-path="url(#clip0_84_413)">
<mask id="mask0_84_413" style="mask-type:luminance" maskUnits="userSpaceOnUse" x="0" y="0" width="36" height="36">
<path d="M36 0.29718H0V35.9895H36V0.29718Z" fill="white"/>
</mask>
<g mask="url(#mask0_84_413)">
<path d="M23.7099 1.33471C25.6751 2.56527 22.4749 3.34945 22.0976 3.43391C17.6136 4.46542 10.7811 3.36151 11.7972 1.77506C11.9675 1.50964 12.5273 1.01501 14.4073 0.653079C14.7602 0.586725 15.2408 0.508306 15.5937 0.454017C16.2142 0.381629 16.2142 0.381629 16.5185 0.357503C17.0721 0.321309 17.0721 0.321309 17.3459 0.309245C17.8752 0.29718 17.8752 0.29718 18.1369 0.29718C18.6601 0.309245 18.6601 0.309245 18.9156 0.321309C19.4449 0.351469 19.4571 0.357503 19.7309 0.381629C20.2967 0.441952 20.3211 0.447983 20.6253 0.490211C21.2763 0.592756 21.3006 0.598789 21.6535 0.671174L22.0368 0.755623C22.5479 0.876269 23.1259 1.02104 23.7099 1.33471C21.9455 0.864205 20.029 0.737528 18.0273 1.00294C20.029 0.737528 21.9455 0.870236 23.7099 1.33471Z" fill="black"/>
<path d="M23.7099 1.33471C25.6751 2.56527 22.4749 3.34945 22.0976 3.43391C17.6136 4.46542 10.7811 3.36151 11.7972 1.77506C11.9675 1.50964 12.5273 1.01501 14.4073 0.653079C14.7602 0.586725 15.2408 0.508306 15.5937 0.454017C16.2142 0.381629 16.2142 0.381629 16.5185 0.357503C17.0721 0.321309 17.0721 0.321309 17.3459 0.309245C17.8752 0.29718 17.8752 0.29718 18.1369 0.29718C18.6601 0.309245 18.6601 0.309245 18.9156 0.321309C19.4449 0.351469 19.4571 0.357503 19.7309 0.381629C20.2967 0.441952 20.3211 0.447983 20.6253 0.490211C21.2763 0.592756 21.3006 0.598789 21.6535 0.671174L22.0368 0.755623C22.5479 0.876269 23.1259 1.02104 23.7099 1.33471C21.9455 0.864205 20.029 0.737528 18.0273 1.00294C20.029 0.737528 21.9455 0.870236 23.7099 1.33471Z" fill="black" fill-opacity="0.2"/>
<path d="M26.8738 2.61954C26.387 2.34206 25.876 2.10078 25.3527 1.88362C25.1702 1.7871 24.9208 1.6725 24.7261 1.58804C25.9368 2.11284 26.0341 2.1611 26.8738 2.61954Z" fill="black"/>
<path d="M26.8738 2.61954C26.387 2.34206 25.876 2.10078 25.3527 1.88362C25.1702 1.7871 24.9208 1.6725 24.7261 1.58804C25.9368 2.11284 26.0341 2.1611 26.8738 2.61954Z" fill="black" fill-opacity="0.2"/>
<path d="M26.8737 2.61943C28.0601 3.3433 28.8449 3.81982 30.2078 5.03229L30.6398 5.43644C32.3373 7.08927 29.575 8.88081 23.7951 9.6469C17.2911 10.5155 9.43645 9.76152 6.24837 7.96392C4.76383 7.12545 4.55087 6.20856 5.40873 5.38216L5.84073 4.97801C7.00278 3.98872 7.18533 3.83792 8.26222 3.12613C9.0775 2.63753 9.91711 2.13685 11.1704 1.61809L11.3591 1.53967C8.33522 2.81849 10.6959 3.88619 11.4929 4.18176C16.6584 6.09998 27.4334 4.86339 26.0888 2.50482C25.9185 2.20924 25.596 2.01018 25.3526 1.86541C25.882 2.10066 26.387 2.34798 26.8737 2.61943Z" fill="black"/>
<path d="M26.8737 2.61943C28.0601 3.3433 28.8449 3.81982 30.2078 5.03229L30.6398 5.43644C32.3373 7.08927 29.575 8.88081 23.7951 9.6469C17.2911 10.5155 9.43645 9.76152 6.24837 7.96392C4.76383 7.12545 4.55087 6.20856 5.40873 5.38216L5.84073 4.97801C7.00278 3.98872 7.18533 3.83792 8.26222 3.12613C9.0775 2.63753 9.91711 2.13685 11.1704 1.61809L11.3591 1.53967C8.33522 2.81849 10.6959 3.88619 11.4929 4.18176C16.6584 6.09998 27.4334 4.86339 26.0888 2.50482C25.9185 2.20924 25.596 2.01018 25.3526 1.86541C25.882 2.10066 26.387 2.34798 26.8737 2.61943Z" fill="black" fill-opacity="0.2"/>
<path d="M32.2157 7.20408C33.2438 8.62162 33.3047 8.70608 33.8217 9.64107C34.6249 11.2577 34.6615 11.318 35.0081 12.3073L35.1602 12.7597C35.7688 14.6538 32.1607 16.5419 25.5839 17.4165C17.0478 18.5566 6.72902 17.5673 2.54312 15.2088C1.10726 14.4005 0.577936 13.5378 0.851726 12.6994L1.00383 12.2469C1.67309 10.57 1.69742 10.5036 2.20241 9.58073C3.12111 8.0546 3.15763 7.9943 3.82081 7.14977L3.97899 6.95676C3.2854 7.80728 3.60177 8.72417 5.10455 9.56867C8.60294 11.5412 17.2181 12.3676 24.3548 11.4145C30.4451 10.6002 33.4812 8.76036 32.0695 7.01103L32.2157 7.20408Z" fill="black"/>
<path d="M32.2157 7.20408C33.2438 8.62162 33.3047 8.70608 33.8217 9.64107C34.6249 11.2577 34.6615 11.318 35.0081 12.3073L35.1602 12.7597C35.7688 14.6538 32.1607 16.5419 25.5839 17.4165C17.0478 18.5566 6.72902 17.5673 2.54312 15.2088C1.10726 14.4005 0.577936 13.5378 0.851726 12.6994L1.00383 12.2469C1.67309 10.57 1.69742 10.5036 2.20241 9.58073C3.12111 8.0546 3.15763 7.9943 3.82081 7.14977L3.97899 6.95676C3.2854 7.80728 3.60177 8.72417 5.10455 9.56867C8.60294 11.5412 17.2181 12.3676 24.3548 11.4145C30.4451 10.6002 33.4812 8.76036 32.0695 7.01103L32.2157 7.20408Z" fill="black" fill-opacity="0.2"/>
<path d="M35.7505 15.1605C35.9879 17.0245 36 17.0968 36 18.1706C35.9209 20.0586 35.915 20.1732 35.708 21.3616L35.6713 21.5426C35.3368 23.2496 31.7532 24.8482 25.7847 25.6444C17.0053 26.8147 6.40663 25.7952 2.09904 23.3763C1.01606 22.7671 0.431975 22.1216 0.310292 21.4883C0.0486732 19.7208 0.0182525 19.4916 0 18.1163C0.0790942 16.192 0.0851782 16.1498 0.261619 15.1062L0.328543 14.7443C0.170357 15.5466 0.736184 16.373 2.11729 17.1512C6.4188 19.5761 17.0235 20.5895 25.8029 19.4192C32.3677 18.5446 36.0487 16.6927 35.6897 14.7986L35.7505 15.1605Z" fill="black"/>
<path d="M35.7505 15.1605C35.9879 17.0245 36 17.0968 36 18.1706C35.9209 20.0586 35.915 20.1732 35.708 21.3616L35.6713 21.5426C35.3368 23.2496 31.7532 24.8482 25.7847 25.6444C17.0053 26.8147 6.40663 25.7952 2.09904 23.3763C1.01606 22.7671 0.431975 22.1216 0.310292 21.4883C0.0486732 19.7208 0.0182525 19.4916 0 18.1163C0.0790942 16.192 0.0851782 16.1498 0.261619 15.1062L0.328543 14.7443C0.170357 15.5466 0.736184 16.373 2.11729 17.1512C6.4188 19.5761 17.0235 20.5895 25.8029 19.4192C32.3677 18.5446 36.0487 16.6927 35.6897 14.7986L35.7505 15.1605Z" fill="black" fill-opacity="0.2"/>
<path d="M34.9291 24.2087C34.2416 25.8796 34.2174 25.9459 33.7063 26.8628C32.7694 28.3769 32.7328 28.4372 32.0636 29.2817L32.0208 29.33C31.1022 30.458 28.3887 31.4652 24.3123 32.0083C17.1816 32.9612 8.56039 32.1348 5.06199 30.1624C4.55092 29.8729 4.17977 29.5773 3.93643 29.2817C3.54704 28.7569 3.02988 28.0511 2.67092 27.5022C1.78262 25.9399 1.74612 25.8796 1.33848 24.9084C1.18638 24.4982 0.967348 23.9493 0.833496 23.5331C1.01602 24.1001 1.56968 24.6611 2.53098 25.204C6.71688 27.5625 17.0295 28.5518 25.5717 27.4117C31.1813 26.6638 34.6249 25.1859 35.142 23.5874L34.9291 24.2087Z" fill="black"/>
<path d="M34.9291 24.2087C34.2416 25.8796 34.2174 25.9459 33.7063 26.8628C32.7694 28.3769 32.7328 28.4372 32.0636 29.2817L32.0208 29.33C31.1022 30.458 28.3887 31.4652 24.3123 32.0083C17.1816 32.9612 8.56039 32.1348 5.06199 30.1624C4.55092 29.8729 4.17977 29.5773 3.93643 29.2817C3.54704 28.7569 3.02988 28.0511 2.67092 27.5022C1.78262 25.9399 1.74612 25.8796 1.33848 24.9084C1.18638 24.4982 0.967348 23.9493 0.833496 23.5331C1.01602 24.1001 1.56968 24.6611 2.53098 25.204C6.71688 27.5625 17.0295 28.5518 25.5717 27.4117C31.1813 26.6638 34.6249 25.1859 35.142 23.5874L34.9291 24.2087Z" fill="black" fill-opacity="0.2"/>
<path d="M30.0193 31.4231C28.8511 32.3945 28.6686 32.5452 27.5734 33.2569C26.7277 33.7517 25.9307 34.216 24.6834 34.7166C23.9168 35.0181 22.8643 35.2775 21.5684 35.4465C17.8996 35.9351 13.5312 35.5975 11.2739 34.6926C10.118 34.192 9.97191 34.1255 9.12622 33.6609C7.89723 32.9132 7.64169 32.7563 6.55871 31.9117C6.19973 31.592 5.71302 31.1757 5.36621 30.844C5.57917 31.0492 5.85904 31.2483 6.20582 31.4474C9.39393 33.2449 17.2486 33.9988 23.7526 33.1301C27.2205 32.6658 29.6055 31.8394 30.5912 30.8923L30.0193 31.4231Z" fill="black"/>
<path d="M30.0193 31.4231C28.8511 32.3945 28.6686 32.5452 27.5734 33.2569C26.7277 33.7517 25.9307 34.216 24.6834 34.7166C23.9168 35.0181 22.8643 35.2775 21.5684 35.4465C17.8996 35.9351 13.5312 35.5975 11.2739 34.6926C10.118 34.192 9.97191 34.1255 9.12622 33.6609C7.89723 32.9132 7.64169 32.7563 6.55871 31.9117C6.19973 31.592 5.71302 31.1757 5.36621 30.844C5.57917 31.0492 5.85904 31.2483 6.20582 31.4474C9.39393 33.2449 17.2486 33.9988 23.7526 33.1301C27.2205 32.6658 29.6055 31.8394 30.5912 30.8923L30.0193 31.4231Z" fill="black" fill-opacity="0.2"/>
<path d="M20.4002 35.8326C19.7796 35.9049 19.7796 35.9049 19.4754 35.9289C18.9217 35.9652 18.9217 35.9652 18.6479 35.9772C18.1247 35.9895 18.1247 35.9895 17.8631 35.9895C17.3398 35.9772 17.3398 35.9772 17.0843 35.9652C16.555 35.9351 16.5428 35.9289 16.269 35.9049C15.691 35.8446 15.6789 35.8385 15.3746 35.7963C14.7237 35.6938 14.6993 35.6877 14.3464 35.6154L13.9631 35.5311C16.336 36.0255 19.1955 36.0618 21.617 35.6215C20.8322 35.7723 20.753 35.7843 20.4002 35.8326Z" fill="black"/>
<path d="M20.4002 35.8326C19.7796 35.9049 19.7796 35.9049 19.4754 35.9289C18.9217 35.9652 18.9217 35.9652 18.6479 35.9772C18.1247 35.9895 18.1247 35.9895 17.8631 35.9895C17.3398 35.9772 17.3398 35.9772 17.0843 35.9652C16.555 35.9351 16.5428 35.9289 16.269 35.9049C15.691 35.8446 15.6789 35.8385 15.3746 35.7963C14.7237 35.6938 14.6993 35.6877 14.3464 35.6154L13.9631 35.5311C16.336 36.0255 19.1955 36.0618 21.617 35.6215C20.8322 35.7723 20.753 35.7843 20.4002 35.8326Z" fill="black" fill-opacity="0.2"/>
</g>
</g>
<defs>
<clipPath id="clip0_84_413">
<rect width="36" height="36" fill="white"/>
</clipPath>
</defs>
</svg>
