<svg width="20" height="20" viewBox="0 0 20 20" fill="none" xmlns="http://www.w3.org/2000/svg">
<path d="M14.3834 8.53892L15.8445 7.07785C16.1842 6.73815 16.3541 6.56831 16.456 6.39162C16.9691 5.50305 16.4599 4.77102 15.8445 4.15568C15.2291 3.54024 14.4972 3.03111 13.6085 3.54413C13.4318 3.64615 13.262 3.81599 12.9223 4.15568L11.4612 5.61676C10.7725 6.30552 10.4282 6.64991 10.0002 6.64991C9.57216 6.64991 9.22783 6.30552 8.53908 5.61676L7.078 4.15568C6.7383 3.81599 6.56846 3.64615 6.39177 3.54413C5.50314 3.03108 4.77124 3.54028 4.15584 4.15568C3.54044 4.77109 3.03124 5.50299 3.54429 6.39162C3.6463 6.56831 3.81614 6.73815 4.15584 7.07785L5.61691 8.53892C6.30568 9.22767 6.65005 9.57201 6.65005 10C6.65005 10.428 6.30568 10.7723 5.61691 11.4611L4.15584 12.9222C3.81614 13.2618 3.6463 13.4317 3.54429 13.6083C3.03126 14.497 3.54039 15.2289 4.15584 15.8443C4.77118 16.4598 5.5032 16.9689 6.39177 16.4558C6.56846 16.3539 6.7383 16.1841 7.078 15.8443L8.53908 14.3833C9.22783 13.6945 9.57216 13.3501 10.0002 13.3501C10.4282 13.3501 10.7725 13.6945 11.4612 14.3833L12.9223 15.8443C13.262 16.1841 13.4318 16.3539 13.6085 16.4558C14.4972 16.9689 15.2292 16.4598 15.8445 15.8443C16.46 15.229 16.9691 14.497 16.456 13.6083C16.3541 13.4317 16.1842 13.2618 15.8445 12.9222C15.1772 12.2548 13.3502 11.0146 13.3502 10C13.3502 9.57201 13.6947 9.22767 14.3834 8.53892Z" stroke="#0B0D12" stroke-width="1.5" stroke-linecap="round" stroke-linejoin="round"/>
</svg>
